<?xml version="1.0" encoding="UTF-8"?>
<svg version="1.1" xmlns="http://www.w3.org/2000/svg" width="8023" height="13807">
<path d="M0 0 C62.04 0 124.08 0 188 0 C188 61.38 188 122.76 188 186 C249.71 186 311.42 186 375 186 C375 247.71 375 309.42 375 373 C436.38 373 497.76 373 561 373 C561 434.38 561 495.76 561 559 C621.39 559 681.78 559 744 559 C744 497.62 744 436.24 744 373 C805.38 373 866.76 373 930 373 C929.9603781 311.83214895 929.9603781 311.83214895 929.90991211 250.66430664 C929.90539551 238.86218262 929.90539551 238.86218262 929.90455627 233.34568787 C929.90362065 229.47405937 929.89985749 225.60244445 929.89442444 221.7308197 C929.8875989 216.80211337 929.88550258 211.87342695 929.88692772 206.94471633 C929.88662943 205.12976529 929.88462678 203.3148136 929.88078487 201.4998666 C929.87585823 199.0603966 929.87699257 196.62100538 929.87974548 194.18153381 C929.87537649 193.10063555 929.87537649 193.10063555 929.87091923 191.99790096 C929.88587517 187.11412483 929.88587517 187.11412483 931 186 C933.40327901 185.90233484 935.7777994 185.87002958 938.18153381 185.87974548 C938.94008667 185.87888947 939.69863953 185.87803345 940.48017883 185.87715149 C943.04939059 185.87548628 945.61853826 185.88103608 948.18774414 185.88647461 C950.0501553 185.8867807 951.91256658 185.88664787 953.77497768 185.88610935 C958.78056486 185.88588279 963.78612833 185.89169545 968.7917099 185.89871979 C973.48186827 185.90439784 978.17202075 185.90468199 982.86218262 185.90539551 C996.59562491 185.91065121 1010.32906275 185.92461225 1024.0625 185.9375 C1054.731875 185.958125 1085.40125 185.97875 1117 186 C1117 124.62 1117 63.24 1117 0 C1180.03 0 1243.06 0 1308 0 C1308 61.38 1308 122.76 1308 186 C1369.38 186 1430.76 186 1494 186 C1494 247.71 1494 309.42 1494 373 C1555.71 373 1617.42 373 1681 373 C1681 434.38 1681 495.76 1681 559 C1741.06 559 1801.12 559 1863 559 C1862.98839844 545.65691406 1862.97679687 532.31382812 1862.96484375 518.56640625 C1862.95973742 510.13997377 1862.95488243 501.7135424 1862.95117188 493.28710938 C1862.94522827 479.89672464 1862.9382249 466.50634618 1862.92456055 453.1159668 C1862.91461551 443.36570622 1862.908147 433.61545071 1862.90591151 423.8651852 C1862.90460409 418.69910902 1862.90151631 413.53304733 1862.89426994 408.36697578 C1862.88751256 403.51043666 1862.88538246 398.6539181 1862.88689232 393.79737473 C1862.88661586 392.00946758 1862.88460908 390.22155979 1862.88079453 388.43365669 C1862.87586167 386.00360201 1862.87700019 383.57362623 1862.87974548 381.14356995 C1862.87683264 380.42665735 1862.8739198 379.70974476 1862.87091869 378.97110754 C1862.88587879 374.11412121 1862.88587879 374.11412121 1864 373 C1866.40327901 372.90233484 1868.7777994 372.87002958 1871.18153381 372.87974548 C1871.94008667 372.87888947 1872.69863953 372.87803345 1873.48017883 372.87715149 C1876.04939059 372.87548628 1878.61853826 372.88103608 1881.18774414 372.88647461 C1883.0501553 372.8867807 1884.91256658 372.88664787 1886.77497768 372.88610935 C1891.78056486 372.88588279 1896.78612833 372.89169545 1901.7917099 372.89871979 C1906.48186827 372.90439784 1911.17202075 372.90468199 1915.86218262 372.90539551 C1929.59562491 372.91065121 1943.32906275 372.92461225 1957.0625 372.9375 C1987.731875 372.958125 2018.40125 372.97875 2050 373 C2050 311.29 2050 249.58 2050 186 C2111.38 186 2172.76 186 2236 186 C2235.96037812 125.16125049 2235.96037812 125.16125049 2235.90991211 64.32250977 C2235.90539551 52.5838623 2235.90539551 52.5838623 2235.90455627 47.09703064 C2235.90362066 43.24623545 2235.89985751 39.3954539 2235.89442444 35.54466248 C2235.88759887 30.64246794 2235.88550259 25.74029344 2235.88692772 20.83809459 C2235.88662943 19.03291235 2235.8846268 17.22772945 2235.88078487 15.42255127 C2235.87585818 12.99619829 2235.87699259 10.56992451 2235.87974548 8.14356995 C2235.87683282 7.42686095 2235.87392015 6.71015196 2235.87091923 5.97172451 C2235.88587517 1.11412483 2235.88587517 1.11412483 2237 0 C2239.45370621 -0.09769877 2241.8792317 -0.12996241 2244.33338928 -0.12025452 C2245.11011866 -0.12110894 2245.88684803 -0.12196337 2246.68711466 -0.12284368 C2249.30974322 -0.12450084 2251.9323089 -0.11897329 2254.55493164 -0.11352539 C2256.42697651 -0.11324354 2258.29902148 -0.1134012 2260.17106628 -0.1139679 C2265.2700276 -0.11425597 2270.36896562 -0.10835769 2275.4679215 -0.10139394 C2280.79041633 -0.09516199 2286.11291163 -0.09455673 2291.43540955 -0.09336853 C2301.52184891 -0.09025474 2311.60827749 -0.08204072 2321.6947121 -0.07201904 C2335.31919408 -0.05877456 2348.94367899 -0.05335838 2362.56816578 -0.04751682 C2384.04545193 -0.03810085 2405.52271534 -0.01818226 2427 0 C2427 61.38 2427 122.76 2427 186 C2488.71 186 2550.42 186 2614 186 C2614 247.71 2614 309.42 2614 373 C2675.38 373 2736.76 373 2800 373 C2800 434.38 2800 495.76 2800 559 C2860.39 559 2920.78 559 2983 559 C2983 497.62 2983 436.24 2983 373 C3044.38 373 3105.76 373 3169 373 C3168.9603781 311.83214895 3168.9603781 311.83214895 3168.90991211 250.66430664 C3168.90539551 238.86218262 3168.90539551 238.86218262 3168.90455627 233.34568787 C3168.90362065 229.47405937 3168.89985749 225.60244445 3168.89442444 221.7308197 C3168.8875989 216.80211337 3168.88550258 211.87342695 3168.88692772 206.94471633 C3168.88662943 205.12976529 3168.88462678 203.3148136 3168.88078487 201.4998666 C3168.87585823 199.0603966 3168.87699257 196.62100538 3168.87974548 194.18153381 C3168.87683282 193.46093497 3168.87392015 192.74033613 3168.87091923 191.99790096 C3168.88587517 187.11412483 3168.88587517 187.11412483 3170 186 C3172.40327901 185.90233484 3174.7777994 185.87002958 3177.18153381 185.87974548 C3177.94008667 185.87888947 3178.69863953 185.87803345 3179.48017883 185.87715149 C3182.04939059 185.87548628 3184.61853826 185.88103608 3187.18774414 185.88647461 C3189.0501553 185.8867807 3190.91256658 185.88664787 3192.77497768 185.88610935 C3197.78056486 185.88588279 3202.78612833 185.89169545 3207.7917099 185.89871979 C3212.48186827 185.90439784 3217.17202075 185.90468199 3221.86218262 185.90539551 C3235.59562491 185.91065121 3249.32906275 185.92461225 3263.0625 185.9375 C3293.731875 185.958125 3324.40125 185.97875 3356 186 C3356 124.62 3356 63.24 3356 0 C3419.03 0 3482.06 0 3547 0 C3547 61.38 3547 122.76 3547 186 C3608.38 186 3669.76 186 3733 186 C3733 247.71 3733 309.42 3733 373 C3794.71 373 3856.42 373 3920 373 C3920 434.38 3920 495.76 3920 559 C3980.06 559 4040.12 559 4102 559 C4101.98259766 538.98537109 4101.98259766 538.98537109 4101.96484375 518.56640625 C4101.95973742 510.13997377 4101.95488243 501.7135424 4101.95117188 493.28710938 C4101.94522827 479.89672464 4101.9382249 466.50634618 4101.92456055 453.1159668 C4101.91461551 443.36570622 4101.908147 433.61545071 4101.90591151 423.8651852 C4101.90460409 418.69910902 4101.90151631 413.53304733 4101.89426994 408.36697578 C4101.88751256 403.51043666 4101.88538246 398.6539181 4101.88689232 393.79737473 C4101.88661586 392.00946758 4101.88460908 390.22155979 4101.88079453 388.43365669 C4101.87586167 386.00360201 4101.87700019 383.57362623 4101.87974548 381.14356995 C4101.87683264 380.42665735 4101.8739198 379.70974476 4101.87091869 378.97110754 C4101.88587879 374.11412121 4101.88587879 374.11412121 4103 373 C4105.40327901 372.90233484 4107.7777994 372.87002958 4110.18153381 372.87974548 C4110.94008667 372.87888947 4111.69863953 372.87803345 4112.48017883 372.87715149 C4115.04939059 372.87548628 4117.61853826 372.88103608 4120.18774414 372.88647461 C4122.0501553 372.8867807 4123.91256658 372.88664787 4125.77497768 372.88610935 C4130.78056486 372.88588279 4135.78612833 372.89169545 4140.7917099 372.89871979 C4145.48186827 372.90439784 4150.17202075 372.90468199 4154.86218262 372.90539551 C4168.59562491 372.91065121 4182.32906275 372.92461225 4196.0625 372.9375 C4226.731875 372.958125 4257.40125 372.97875 4289 373 C4289 311.29 4289 249.58 4289 186 C4350.38 186 4411.76 186 4475 186 C4474.96037812 125.16125049 4474.96037812 125.16125049 4474.90991211 64.32250977 C4474.90539551 52.58386231 4474.90539551 52.58386231 4474.90455627 47.09703064 C4474.90362066 43.24623545 4474.89985751 39.3954539 4474.89442444 35.54466248 C4474.88759887 30.64246794 4474.88550259 25.74029344 4474.88692772 20.83809459 C4474.88662943 19.03291235 4474.8846268 17.22772945 4474.88078487 15.42255127 C4474.87585818 12.99619829 4474.87699259 10.56992451 4474.87974548 8.14356995 C4474.87683282 7.42686095 4474.87392015 6.71015196 4474.87091923 5.97172451 C4474.88587517 1.11412483 4474.88587517 1.11412483 4476 0 C4478.45370621 -0.09769877 4480.8792317 -0.12996241 4483.33338928 -0.12025452 C4484.11011866 -0.12110894 4484.88684803 -0.12196337 4485.68711466 -0.12284368 C4488.30974322 -0.12450084 4490.9323089 -0.11897329 4493.55493164 -0.11352539 C4495.42697651 -0.11324354 4497.29902148 -0.1134012 4499.17106628 -0.1139679 C4504.2700276 -0.11425597 4509.36896562 -0.10835769 4514.4679215 -0.10139394 C4519.79041633 -0.09516199 4525.11291163 -0.09455673 4530.43540955 -0.09336853 C4540.52184891 -0.09025474 4550.60827749 -0.08204072 4560.6947121 -0.07201904 C4574.31919408 -0.05877456 4587.94367899 -0.05335838 4601.56816578 -0.04751682 C4623.04545193 -0.03810085 4644.52271534 -0.01818226 4666 0 C4666 61.38 4666 122.76 4666 186 C4727.71 186 4789.42 186 4853 186 C4853 247.71 4853 309.42 4853 373 C4914.38 373 4975.76 373 5039 373 C5039 434.38 5039 495.76 5039 559 C5099.39 559 5159.78 559 5222 559 C5222 497.62 5222 436.24 5222 373 C5283.38 373 5344.76 373 5408 373 C5407.9603781 311.83214895 5407.9603781 311.83214895 5407.90991211 250.66430664 C5407.90539551 238.86218261 5407.90539551 238.86218261 5407.90455627 233.34568787 C5407.90362065 229.47405937 5407.89985749 225.60244445 5407.89442444 221.7308197 C5407.8875989 216.80211337 5407.88550258 211.87342695 5407.88692772 206.94471633 C5407.88662943 205.12976529 5407.88462678 203.3148136 5407.88078487 201.4998666 C5407.87585823 199.0603966 5407.87699257 196.62100538 5407.87974548 194.18153381 C5407.87683282 193.46093497 5407.87392015 192.74033613 5407.87091923 191.99790096 C5407.88587517 187.11412483 5407.88587517 187.11412483 5409 186 C5411.40327901 185.90233484 5413.7777994 185.87002958 5416.18153381 185.87974548 C5416.94008667 185.87888947 5417.69863953 185.87803345 5418.48017883 185.87715149 C5421.04939059 185.87548628 5423.61853826 185.88103608 5426.18774414 185.88647461 C5428.0501553 185.8867807 5429.91256658 185.88664787 5431.77497768 185.88610935 C5436.78056486 185.88588279 5441.78612833 185.89169545 5446.7917099 185.89871979 C5451.48186827 185.90439784 5456.17202075 185.90468199 5460.86218262 185.90539551 C5474.59562491 185.91065121 5488.32906275 185.92461225 5502.0625 185.9375 C5532.731875 185.958125 5563.40125 185.97875 5595 186 C5595 124.62 5595 63.24 5595 0 C5658.03 0 5721.06 0 5786 0 C5786 61.38 5786 122.76 5786 186 C5847.38 186 5908.76 186 5972 186 C5972 247.71 5972 309.42 5972 373 C6033.71 373 6095.42 373 6159 373 C6159 434.38 6159 495.76 6159 559 C6219.06 559 6279.12 559 6341 559 C6340.98259766 538.98537109 6340.98259766 538.98537109 6340.96484375 518.56640625 C6340.95973742 510.13997377 6340.95488243 501.7135424 6340.95117188 493.28710938 C6340.94522827 479.89672464 6340.9382249 466.50634618 6340.92456055 453.1159668 C6340.91461551 443.36570622 6340.908147 433.61545071 6340.90591151 423.8651852 C6340.90460409 418.69910902 6340.90151631 413.53304733 6340.89426994 408.36697578 C6340.88751256 403.51043666 6340.88538246 398.6539181 6340.88689232 393.79737473 C6340.88661586 392.00946758 6340.88460908 390.22155979 6340.88079453 388.43365669 C6340.87586167 386.00360201 6340.87700019 383.57362623 6340.87974548 381.14356995 C6340.87683264 380.42665735 6340.8739198 379.70974476 6340.87091869 378.97110754 C6340.88587879 374.11412121 6340.88587879 374.11412121 6342 373 C6344.40327901 372.90233484 6346.7777994 372.87002958 6349.18153381 372.87974548 C6349.94008667 372.87888947 6350.69863953 372.87803345 6351.48017883 372.87715149 C6354.04939059 372.87548628 6356.61853826 372.88103608 6359.18774414 372.88647461 C6361.0501553 372.8867807 6362.91256658 372.88664787 6364.77497768 372.88610935 C6369.78056486 372.88588279 6374.78612833 372.89169545 6379.7917099 372.89871979 C6384.48186827 372.90439784 6389.17202075 372.90468199 6393.86218262 372.90539551 C6407.59562491 372.91065121 6421.32906275 372.92461225 6435.0625 372.9375 C6465.731875 372.958125 6496.40125 372.97875 6528 373 C6528 311.29 6528 249.58 6528 186 C6589.38 186 6650.76 186 6714 186 C6713.96037812 125.16125049 6713.96037812 125.16125049 6713.90991211 64.32250977 C6713.90539551 52.58386231 6713.90539551 52.58386231 6713.90455627 47.09703064 C6713.90362066 43.24623545 6713.89985751 39.3954539 6713.89442444 35.54466248 C6713.88759887 30.64246794 6713.88550259 25.74029344 6713.88692772 20.83809459 C6713.88662943 19.03291235 6713.8846268 17.22772945 6713.88078487 15.42255127 C6713.87585818 12.99619829 6713.87699259 10.56992451 6713.87974548 8.14356995 C6713.87683282 7.42686095 6713.87392015 6.71015196 6713.87091923 5.97172451 C6713.88587517 1.11412483 6713.88587517 1.11412483 6715 0 C6717.45370621 -0.09769877 6719.8792317 -0.12996241 6722.33338928 -0.12025452 C6723.11011866 -0.12110894 6723.88684803 -0.12196337 6724.68711466 -0.12284368 C6727.30974322 -0.12450084 6729.9323089 -0.11897329 6732.55493164 -0.11352539 C6734.42697651 -0.11324354 6736.29902148 -0.1134012 6738.17106628 -0.1139679 C6743.2700276 -0.11425597 6748.36896562 -0.10835769 6753.4679215 -0.10139394 C6758.79041633 -0.09516199 6764.11291163 -0.09455673 6769.43540955 -0.09336853 C6779.52184891 -0.09025474 6789.60827749 -0.08204072 6799.6947121 -0.07201904 C6813.31919408 -0.05877456 6826.94367899 -0.05335838 6840.56816578 -0.04751682 C6862.04545193 -0.03810085 6883.52271534 -0.01818226 6905 0 C6905 61.38 6905 122.76 6905 186 C6966.71 186 7028.42 186 7092 186 C7092 247.71 7092 309.42 7092 373 C7153.38 373 7214.76 373 7278 373 C7278 434.38 7278 495.76 7278 559 C7338.39 559 7398.78 559 7461 559 C7461 497.62 7461 436.24 7461 373 C7522.38 373 7583.76 373 7647 373 C7646.9603781 311.83214895 7646.9603781 311.83214895 7646.90991211 250.66430664 C7646.90539551 238.86218261 7646.90539551 238.86218261 7646.90455627 233.34568787 C7646.90362065 229.47405937 7646.89985749 225.60244445 7646.89442444 221.7308197 C7646.8875989 216.80211337 7646.88550258 211.87342695 7646.88692772 206.94471633 C7646.88662943 205.12976529 7646.88462678 203.3148136 7646.88078487 201.4998666 C7646.87585823 199.0603966 7646.87699257 196.62100538 7646.87974548 194.18153381 C7646.87683282 193.46093497 7646.87392015 192.74033613 7646.87091923 191.99790096 C7646.88587517 187.11412483 7646.88587517 187.11412483 7648 186 C7650.40327901 185.90233484 7652.7777994 185.87002958 7655.18153381 185.87974548 C7655.94008667 185.87888947 7656.69863953 185.87803345 7657.48017883 185.87715149 C7660.04939059 185.87548628 7662.61853826 185.88103608 7665.18774414 185.88647461 C7667.0501553 185.8867807 7668.91256658 185.88664787 7670.77497768 185.88610935 C7675.78056486 185.88588279 7680.78612833 185.89169545 7685.7917099 185.89871979 C7690.48186827 185.90439784 7695.17202075 185.90468199 7699.86218262 185.90539551 C7713.59562491 185.91065121 7727.32906275 185.92461225 7741.0625 185.9375 C7771.731875 185.958125 7802.40125 185.97875 7834 186 C7834 124.62 7834 63.24 7834 0 C7896.37 0 7958.74 0 8023 0 C8023 616.11 8023 1232.22 8023 1867 C5375.41 1867 2727.82 1867 0 1867 C0 1250.89 0 634.78 0 0 Z " fill="#B9915E" transform="translate(0,11940)"/>
<path d="M0 0 C617.1 0 1234.2 0 1870 0 C1870 617.1 1870 1234.2 1870 1870 C1252.9 1870 635.8 1870 0 1870 C0 1252.9 0 635.8 0 0 Z " fill="#B9915E" transform="translate(2050,4103)"/>
<path d="M0 0 C1.43544358 0.00009601 1.43544358 0.00009601 2.89988602 0.00019396 C4.00232487 -0.00215894 5.10476372 -0.00451183 6.2406098 -0.00693603 C8.085051 -0.00317271 8.085051 -0.00317271 9.96675363 0.00066663 C11.26584401 -0.00061146 12.5649344 -0.00188956 13.90339115 -0.00320638 C17.54854581 -0.00664711 21.19367353 -0.00377556 24.83882684 0.00002765 C28.80579431 0.0030726 32.77275832 0.00033833 36.73972585 -0.0016789 C43.73113377 -0.00442393 50.72253356 -0.00341058 57.71394107 -0.00001745 C68.16001448 0.00503304 78.60608202 0.00435848 89.05215621 0.00251118 C106.86145213 -0.00046923 124.67074477 0.00132839 142.48004028 0.00564999 C160.73588755 0.01005967 178.99173316 0.012238 197.24758098 0.01179285 C198.98750445 0.01175238 198.98750445 0.01175238 200.76257789 0.0117111 C206.67745146 0.01156353 212.59232503 0.01138049 218.5071986 0.01118469 C260.96876786 0.00984959 303.43033564 0.01323721 345.89190444 0.01928956 C403.30585063 0.02745583 460.71979361 0.02939151 518.13374099 0.03026063 C656.22948512 0.03551821 794.32522881 0.04947922 932.42097244 0.06236512 C1240.78534744 0.08299012 1549.14972244 0.10361512 1866.85847244 0.12486512 C1866.85847244 617.22486512 1866.85847244 1234.32486512 1866.85847244 1870.12486512 C1404.31190994 1870.15580262 1404.31190994 1870.15580262 932.42097244 1870.18736512 C834.85513503 1870.19646913 737.28929763 1870.20557313 636.7669197 1870.21495301 C518.13374098 1870.21946962 518.13374098 1870.21946962 462.69427261 1870.22030885 C422.47418696 1870.22127592 382.25410302 1870.22525772 342.03401784 1870.23099058 C299.66823384 1870.23701168 257.30245084 1870.23982979 214.9366664 1870.23842736 C209.04030459 1870.2382331 203.14394278 1870.23807453 197.24758098 1870.2379374 C196.09190327 1870.23790922 194.93622556 1870.23788104 193.74552731 1870.23785201 C175.55172008 1870.23749973 157.35791501 1870.24046999 139.16410837 1870.2448849 C121.48258974 1870.24910817 103.80107395 1870.2498273 86.11955506 1870.24670046 C75.73493603 1870.24497251 65.35032597 1870.24604155 54.96570797 1870.2510815 C48.07545969 1870.25415615 41.18521788 1870.25366971 34.29496981 1870.25016598 C30.37686404 1870.24827703 26.45877583 1870.24801241 22.54067135 1870.25210041 C18.34935144 1870.25644009 14.15807372 1870.25318719 9.96675363 1870.24906362 C8.12231244 1870.25282694 8.12231244 1870.25282694 6.2406098 1870.25666628 C4.58695153 1870.25313693 4.58695153 1870.25313693 2.89988602 1870.24953629 C1.46444244 1870.2496323 1.46444244 1870.2496323 0 1870.24973025 C-2.14152756 1870.12486512 -2.14152756 1870.12486512 -3.14152756 1869.12486512 C-3.23952331 1867.447771 -3.26662227 1865.76650962 -3.2666714 1864.08655489 C-3.2691299 1862.98481828 -3.2715884 1861.88308167 -3.2741214 1860.7479591 C-3.27053529 1858.90467192 -3.27053529 1858.90467192 -3.26687673 1857.02414663 C-3.26827904 1855.72580253 -3.26968136 1854.42745844 -3.27112617 1853.08977058 C-3.27491492 1849.44688077 -3.27239193 1845.80401732 -3.26893622 1842.16112816 C-3.2662697 1838.19793576 -3.26937987 1834.23474737 -3.27177307 1830.27155537 C-3.27518033 1823.28571697 -3.27482511 1816.29988635 -3.27208953 1809.31404776 C-3.26801266 1798.85596677 -3.26966543 1788.39789215 -3.27247217 1777.93981102 C-3.27708396 1760.12048925 -3.27691645 1742.30117033 -3.27419129 1724.48184831 C-3.2714446 1706.41194975 -3.27085601 1688.34205307 -3.27292863 1670.2721544 C-3.2730578 1669.1328567 -3.27318697 1667.993559 -3.27332006 1666.81973713 C-3.2738533 1662.17991888 -3.274402 1657.54010064 -3.27497033 1652.9002824 C-3.28026621 1609.63476006 -3.28061549 1566.36923897 -3.27782288 1523.10371644 C-3.27774009 1521.82037716 -3.27765729 1520.53703788 -3.27757199 1519.21480953 C-3.27748906 1517.92943276 -3.27740613 1516.64405599 -3.27732069 1515.31972841 C-3.27480074 1476.210798 -3.2741446 1437.10186811 -3.27534333 1397.99293763 C-3.27542081 1395.37729933 -3.27549796 1392.76166103 -3.2755748 1390.14602272 C-3.27588525 1379.63570771 -3.27620391 1369.12539269 -3.27653456 1358.61507767 C-3.27745172 1329.23166719 -3.27802385 1299.8482567 -3.2783207 1270.4648462 C-3.27832757 1269.79587149 -3.27833444 1269.12689677 -3.27834151 1268.43765009 C-3.27878039 1225.09965931 -3.27767879 1181.76166871 -3.27547112 1138.42367799 C-3.275436 1137.73160497 -3.27540088 1137.03953196 -3.2753647 1136.32648703 C-3.27418828 1113.14400147 -3.27293225 1089.96151591 -3.27166807 1066.77903036 C-3.26784749 996.66970007 -3.26575397 926.56037045 -3.2717834 801.35575284 C-3.27304657 778.17918598 -3.27429506 755.00261912 -3.27547112 731.82605226 C-3.27550637 731.13417544 -3.27554161 730.44229863 -3.27557792 729.72945585 C-3.27778253 686.41459856 -3.27876542 643.09974139 -3.2783207 599.78488405 C-3.27831394 599.11612882 -3.27830719 598.4473736 -3.27830023 597.75835307 C-3.27799353 567.73272774 -3.27735479 537.70710242 -3.2764102 507.6814771 C-3.27608103 497.18037633 -3.27576796 486.67927556 -3.27545949 476.17817479 C-3.2753821 473.56560799 -3.27530337 470.95304119 -3.27522329 468.34047439 C-3.2740281 429.23862295 -3.27504922 390.13677209 -3.27757199 351.03492072 C-3.27765478 349.75158144 -3.27773758 348.46824216 -3.27782288 347.14601381 C-3.27794691 345.22453265 -3.27794691 345.22453265 -3.27807343 343.2642337 C-3.28082729 300.12738299 -3.27982596 256.99053379 -3.27454214 213.8536833 C-3.27398975 209.22831415 -3.27345305 204.602945 -3.27292863 199.97757585 C-3.27279842 198.84237821 -3.27266821 197.70718057 -3.27253406 196.537583 C-3.27055617 178.51072434 -3.27194073 160.48386756 -3.27469763 142.45700907 C-3.277333 124.76182239 -3.27643257 107.06663888 -3.27168354 89.37145261 C-3.26900087 78.9772624 -3.26909489 68.58308087 -3.27316514 58.18889106 C-3.27559114 51.30455915 -3.27445544 44.42023406 -3.27029829 37.53590299 C-3.26803741 33.62126674 -3.26740132 29.70664791 -3.2711148 25.79201239 C-3.27505448 21.60318827 -3.271401 17.41440711 -3.26687673 13.22558362 C-3.26926747 11.99672551 -3.27165821 10.76786739 -3.2741214 9.50177115 C-3.2716629 8.40003454 -3.2692044 7.29829792 -3.2666714 6.16317535 C-3.26664343 5.206817 -3.26661546 4.25045864 -3.26658665 3.26511972 C-3.09734771 0.36877335 -2.89640417 0.16887939 0 0 Z " fill="#B9915E" transform="translate(4105.141527563566,4102.875134875765)"/>
<path d="M0 0 C617.1 0 1234.2 0 1870 0 C1870 616.44 1870 1232.88 1870 1868 C1252.9 1868 635.8 1868 0 1868 C0 1251.56 0 635.12 0 0 Z " fill="#B9915E" transform="translate(2050,0)"/>
<path d="M0 0 C616.44 0 1232.88 0 1868 0 C1868 617.1 1868 1234.2 1868 1870 C1405.9484375 1870.0309375 1405.9484375 1870.0309375 934.5625 1870.0625 C837.10107666 1870.071604 739.63965332 1870.08070801 639.22485352 1870.09008789 C520.71862792 1870.09460449 520.71862792 1870.09460449 465.33848572 1870.09544373 C425.16144302 1870.0964108 384.98440205 1870.1003926 344.80735983 1870.10612545 C302.48691372 1870.11214656 260.16646862 1870.11496466 217.84602207 1870.11356223 C211.95596973 1870.11336797 206.06591739 1870.11320941 200.17586505 1870.11307228 C198.44420347 1870.11303001 198.44420347 1870.11303001 196.67755882 1870.11298688 C178.50322312 1870.1126346 160.32888959 1870.11560486 142.15455448 1870.12001978 C124.49195733 1870.12424305 106.82936303 1870.12496218 89.16676561 1870.12183534 C78.79326062 1870.12010738 68.41976462 1870.12117643 58.04626066 1870.12621637 C51.16338524 1870.12929103 44.2805163 1870.12880458 37.39764109 1870.12530085 C33.48372873 1870.12341191 29.56983394 1870.12314728 25.65592287 1870.12723528 C21.46908694 1870.13157497 17.28229325 1870.12832207 13.09545714 1870.1241985 C11.25299369 1870.12796181 11.25299369 1870.12796181 9.37330876 1870.13180115 C8.2720471 1870.12944826 7.17078544 1870.12709536 6.03615222 1870.12467116 C5.08021394 1870.12473517 4.12427566 1870.12479918 3.13936955 1870.12486512 C1 1870 1 1870 0 1869 C-0.09784628 1867.32186517 -0.1247836 1865.63957137 -0.12467116 1863.95858642 C-0.12702406 1862.85615561 -0.12937696 1861.7537248 -0.13180115 1860.617887 C-0.12929228 1859.3882515 -0.1267834 1858.15861599 -0.1241985 1856.8917188 C-0.12547658 1855.59255605 -0.12675467 1854.2933933 -0.12807148 1852.95486198 C-0.13151207 1849.3096728 -0.12864087 1845.66451057 -0.12483745 1842.01932273 C-0.12179311 1838.05363249 -0.12452684 1834.08794572 -0.12654433 1830.12225541 C-0.12928999 1823.13201711 -0.12827545 1816.14178694 -0.12488318 1809.15154903 C-0.11982463 1798.68689689 -0.12050638 1788.2222506 -0.12234976 1777.75759767 C-0.12532239 1759.92711373 -0.12353474 1742.09663306 -0.11920547 1724.26614952 C-0.11483462 1706.18496412 -0.11263205 1688.1037804 -0.11310768 1670.02259445 C-0.11313637 1668.88258633 -0.11316507 1667.74257821 -0.11319463 1666.56802439 C-0.11335099 1660.75560648 -0.11354294 1654.94318858 -0.11374746 1649.13077068 C-0.11515674 1607.00820984 -0.11171798 1564.88565051 -0.10573006 1522.76309013 C-0.09981227 1481.03437734 -0.09595591 1439.30566519 -0.09487724 1397.57695198 C-0.09484283 1396.28213031 -0.09480842 1394.98730865 -0.09477296 1393.65324996 C-0.09445978 1381.82745219 -0.09417208 1370.00165441 -0.09391499 1358.17585664 C-0.09327551 1328.77519451 -0.0923166 1299.37453239 -0.09113979 1269.97387028 C-0.09111316 1269.3045039 -0.09108653 1268.63513753 -0.09105909 1267.94548732 C-0.08933113 1224.58227451 -0.08628315 1181.21906191 -0.08213139 1137.85584927 C-0.0820651 1137.16337454 -0.08199881 1136.47089981 -0.08193051 1135.757441 C-0.07990977 1114.67740212 -0.0777914 1093.59736325 -0.07565394 1072.51732439 C-0.073289 1049.18952811 -0.0709407 1025.86173183 -0.06866455 1002.53393555 C-0.0685618 1001.48174019 -0.0685618 1001.48174019 -0.06845698 1000.40828837 C-0.06202757 934.51275407 -0.05822502 868.61721971 -0.05513173 802.72168518 C-0.05493143 798.45780996 -0.05472892 794.19393474 -0.05452599 789.93005951 C-0.05241225 745.495581 -0.05042556 701.06110247 -0.04849322 656.62662394 C-0.04843801 655.35716986 -0.04838279 654.08771578 -0.04832591 652.77979339 C-0.04822552 650.46997711 -0.04812528 648.16016082 -0.04802525 645.85034454 C-0.03867561 430.56689556 -0.0185137 215.28344875 0 0 Z " fill="#B9915E" transform="translate(6155,8208)"/>
<path d="M0 0 C616.44 0 1232.88 0 1868 0 C1868 617.1 1868 1234.2 1868 1870 C1405.9484375 1870.0309375 1405.9484375 1870.0309375 934.5625 1870.0625 C837.10107666 1870.071604 739.63965332 1870.08070801 639.22485352 1870.09008789 C520.71862792 1870.09460449 520.71862792 1870.09460449 465.33848572 1870.09544373 C425.16144302 1870.0964108 384.98440205 1870.1003926 344.80735983 1870.10612545 C302.48691372 1870.11214656 260.16646862 1870.11496466 217.84602207 1870.11356223 C211.95596973 1870.11336797 206.06591739 1870.11320941 200.17586505 1870.11307228 C198.44420347 1870.11303001 198.44420347 1870.11303001 196.67755882 1870.11298688 C178.50322312 1870.1126346 160.32888959 1870.11560486 142.15455448 1870.12001978 C124.49195733 1870.12424305 106.82936303 1870.12496218 89.16676561 1870.12183534 C78.79326062 1870.12010738 68.41976462 1870.12117643 58.04626066 1870.12621637 C51.16338524 1870.12929103 44.2805163 1870.12880458 37.39764109 1870.12530085 C33.48372873 1870.12341191 29.56983394 1870.12314728 25.65592287 1870.12723528 C21.46908694 1870.13157497 17.28229325 1870.12832207 13.09545714 1870.1241985 C11.25299369 1870.12796181 11.25299369 1870.12796181 9.37330876 1870.13180115 C8.2720471 1870.12944826 7.17078544 1870.12709536 6.03615222 1870.12467116 C5.08021394 1870.12473517 4.12427566 1870.12479918 3.13936955 1870.12486512 C1 1870 1 1870 0 1869 C-0.09784628 1867.32186517 -0.1247836 1865.63957137 -0.12467116 1863.95858642 C-0.12702406 1862.85615561 -0.12937696 1861.7537248 -0.13180115 1860.617887 C-0.12929228 1859.3882515 -0.1267834 1858.15861599 -0.1241985 1856.8917188 C-0.12547658 1855.59255605 -0.12675467 1854.2933933 -0.12807148 1852.95486198 C-0.13151207 1849.3096728 -0.12864087 1845.66451057 -0.12483745 1842.01932273 C-0.12179311 1838.05363249 -0.12452684 1834.08794572 -0.12654433 1830.12225541 C-0.12928999 1823.13201711 -0.12827545 1816.14178694 -0.12488318 1809.15154903 C-0.11982463 1798.68689689 -0.12050638 1788.2222506 -0.12234976 1777.75759767 C-0.12532239 1759.92711373 -0.12353474 1742.09663306 -0.11920547 1724.26614952 C-0.11483462 1706.18496412 -0.11263205 1688.1037804 -0.11310768 1670.02259445 C-0.11313637 1668.88258633 -0.11316507 1667.74257821 -0.11319463 1666.56802439 C-0.11335099 1660.75560648 -0.11354294 1654.94318858 -0.11374746 1649.13077068 C-0.11515674 1607.00820984 -0.11171798 1564.88565051 -0.10573006 1522.76309013 C-0.09981227 1481.03437734 -0.09595591 1439.30566519 -0.09487724 1397.57695198 C-0.09484283 1396.28213031 -0.09480842 1394.98730865 -0.09477296 1393.65324996 C-0.09445978 1381.82745219 -0.09417208 1370.00165441 -0.09391499 1358.17585664 C-0.09327551 1328.77519451 -0.0923166 1299.37453239 -0.09113979 1269.97387028 C-0.09111316 1269.3045039 -0.09108653 1268.63513753 -0.09105909 1267.94548732 C-0.08933113 1224.58227451 -0.08628315 1181.21906191 -0.08213139 1137.85584927 C-0.0820651 1137.16337454 -0.08199881 1136.47089981 -0.08193051 1135.757441 C-0.07990977 1114.67740212 -0.0777914 1093.59736325 -0.07565394 1072.51732439 C-0.073289 1049.18952811 -0.0709407 1025.86173183 -0.06866455 1002.53393555 C-0.0685618 1001.48174019 -0.0685618 1001.48174019 -0.06845698 1000.40828837 C-0.06202757 934.51275407 -0.05822502 868.61721971 -0.05513173 802.72168518 C-0.05493143 798.45780996 -0.05472892 794.19393474 -0.05452599 789.93005951 C-0.05241225 745.495581 -0.05042556 701.06110247 -0.04849322 656.62662394 C-0.04843801 655.35716986 -0.04838279 654.08771578 -0.04832591 652.77979339 C-0.04822552 650.46997711 -0.04812528 648.16016082 -0.04802525 645.85034454 C-0.03867561 430.56689556 -0.0185137 215.28344875 0 0 Z " fill="#B9915E" transform="translate(6155,2051)"/>
<path d="M0 0 C617.1 0 1234.2 0 1870 0 C1870 616.44 1870 1232.88 1870 1868 C1400.19816265 1868.04040148 1400.19816265 1868.04040148 1220.92342317 1868.04816496 C1218.4067408 1868.04827434 1215.89005843 1868.04838376 1213.37337606 1868.04849322 C1211.48054279 1868.04857554 1211.48054279 1868.04857554 1209.54947047 1868.04865951 C1165.67741314 1868.05057012 1121.80535581 1868.05253968 1077.93329848 1868.05462768 C1073.67360765 1868.05483029 1069.41391681 1868.05503148 1065.15422598 1868.05523144 C999.258172 1868.05832477 933.3621182 1868.06222965 867.46606445 1868.06866455 C866.76469158 1868.06873299 866.0633187 1868.06880142 865.3406921 1868.06887193 C842.01621117 1868.07114901 818.69173025 1868.0735034 795.36724933 1868.07586844 C774.29288314 1868.07800509 753.21851694 1868.08011399 732.14415073 1868.08213139 C731.10573331 1868.08223081 731.10573331 1868.08223081 730.04633775 1868.08233224 C686.70626845 1868.08647453 643.36619919 1868.08941533 600.02612972 1868.09113979 C599.35698292 1868.09116658 598.68783612 1868.09119336 597.99841215 1868.09122096 C567.95515514 1868.09242251 537.91189813 1868.09334784 507.86864111 1868.09400098 C496.05344341 1868.09426262 484.23824571 1868.09456324 472.42304802 1868.09487724 C471.12989805 1868.09491067 469.83674809 1868.0949441 468.50441176 1868.09497854 C426.78719056 1868.09607632 385.06997043 1868.10035191 343.35274966 1868.10628221 C301.35520064 1868.11223789 259.35765266 1868.11510176 217.36010321 1868.11362399 C211.56587065 1868.11342089 205.7716381 1868.11325351 199.97740555 1868.11310768 C198.84149984 1868.1130778 197.70559412 1868.11304792 196.53526703 1868.11301713 C178.49714595 1868.11263542 160.45902704 1868.11563018 142.42090656 1868.12000986 C124.71463421 1868.12424037 107.00836471 1868.12495083 89.3020921 1868.12183181 C78.90136808 1868.12010809 68.50065302 1868.12116967 58.09993004 1868.126217 C51.21126256 1868.12929101 44.32260155 1868.12880558 37.43393428 1868.12530107 C33.51682908 1868.12341173 29.59974143 1868.12314811 25.68263752 1868.12723524 C21.49117141 1868.1315751 17.29974749 1868.12832196 13.1082812 1868.1241985 C11.87864569 1868.12670737 10.64901019 1868.12921625 9.382113 1868.13180115 C8.27968219 1868.12944826 7.17725138 1868.12709536 6.04141358 1868.12467116 C4.60597 1868.12476717 4.60597 1868.12476717 3.14152756 1868.12486512 C1 1868 1 1868 0 1867 C-0.09784249 1865.32362118 -0.1247836 1863.64307948 -0.12467116 1861.96384778 C-0.12702406 1860.86258612 -0.12937696 1859.76132447 -0.13180115 1858.62669124 C-0.12929228 1857.39838228 -0.1267834 1856.17007331 -0.1241985 1854.90454286 C-0.12547659 1853.60684126 -0.12675468 1852.30913965 -0.1280715 1850.97211376 C-0.13151222 1847.33086088 -0.12864069 1843.68963497 -0.12483748 1840.04838344 C-0.12179252 1836.08566038 -0.1245268 1832.12294078 -0.12654402 1828.16021765 C-0.12928905 1821.17629176 -0.12827571 1814.19237401 -0.12488258 1807.20844853 C-0.11983208 1796.77355426 -0.12050664 1786.33866588 -0.12235395 1775.90377083 C-0.12533435 1758.1135336 -0.12353674 1740.32329964 -0.11921513 1722.53306282 C-0.11480545 1704.29675315 -0.11262712 1686.06044516 -0.11307228 1667.82413495 C-0.11309925 1666.66542719 -0.11312623 1665.50671943 -0.11315403 1664.31289931 C-0.1133016 1658.40435501 -0.11348463 1652.4958107 -0.11368043 1646.5872664 C-0.11501553 1604.17113776 -0.11162791 1561.75501061 -0.10557556 1519.33888245 C-0.09740929 1461.98637832 -0.09547361 1404.63387739 -0.09460449 1347.28137207 C-0.08934691 1209.3334144 -0.07538591 1071.38545717 -0.0625 933.4375 C-0.041875 625.403125 -0.02125 317.36875 0 0 Z " fill="#B9915E" transform="translate(4102,0)"/>
<path d="M0 0 C616.44 0 1232.88 0 1868 0 C1868 616.77 1868 1233.54 1868 1869 C1251.56 1869 635.12 1869 0 1869 C0 1252.23 0 635.46 0 0 Z " fill="#B9915E" transform="translate(6155,6156)"/>
<path d="M0 0 C616.11 0 1232.22 0 1867 0 C1867 617.1 1867 1234.2 1867 1870 C1250.89 1870 634.78 1870 0 1870 C0 1252.9 0 635.8 0 0 Z " fill="#B9915E" transform="translate(0,4103)"/>
<path d="M0 0 C616.11 0 1232.22 0 1867 0 C1867.04040148 469.80183735 1867.04040148 469.80183735 1867.04816496 649.07657683 C1867.04827434 651.5932592 1867.04838376 654.10994157 1867.04849322 656.62662394 C1867.0485481 657.88851279 1867.04860297 659.15040163 1867.04865951 660.45052953 C1867.05057012 704.32258686 1867.05253968 748.19464419 1867.05462768 792.06670152 C1867.05483029 796.32639235 1867.05503148 800.58608319 1867.05523144 804.84577402 C1867.05832477 870.741828 1867.06222965 936.6378818 1867.06866455 1002.53393555 C1867.0687672 1003.58599486 1867.0687672 1003.58599486 1867.06887193 1004.6593079 C1867.07114901 1027.98378883 1867.0735034 1051.30826975 1867.07586844 1074.63275067 C1867.07800509 1095.70711686 1867.08011399 1116.78148306 1867.08213139 1137.85584927 C1867.08219767 1138.54812755 1867.08226395 1139.24040584 1867.08233224 1139.95366225 C1867.08647453 1183.29373155 1867.08941533 1226.63380081 1867.09113979 1269.97387028 C1867.09116658 1270.64301708 1867.09119336 1271.31216388 1867.09122096 1272.00158785 C1867.09242251 1302.04484486 1867.09334784 1332.08810187 1867.09400098 1362.13135889 C1867.09426262 1373.94655659 1867.09456324 1385.76175429 1867.09487724 1397.57695198 C1867.09491067 1398.87010195 1867.0949441 1400.16325191 1867.09497854 1401.49558824 C1867.09607632 1443.21280944 1867.10035191 1484.93002957 1867.10628221 1526.64725034 C1867.11223789 1568.64479936 1867.11510176 1610.64234734 1867.11362399 1652.63989679 C1867.11342089 1658.43412935 1867.11325351 1664.2283619 1867.11310768 1670.02259445 C1867.11306286 1671.72645302 1867.11306286 1671.72645302 1867.11301713 1673.46473297 C1867.11263542 1691.50285405 1867.11563018 1709.54097296 1867.12000986 1727.57909344 C1867.12424037 1745.28536579 1867.12495083 1762.99163529 1867.12183181 1780.6979079 C1867.12010809 1791.09863192 1867.12116967 1801.49934698 1867.126217 1811.90006996 C1867.12929101 1818.78873744 1867.12880558 1825.67739845 1867.12530107 1832.56606572 C1867.12341173 1836.48317092 1867.12314811 1840.40025857 1867.12723524 1844.31736248 C1867.1315751 1848.50882859 1867.12832196 1852.70025251 1867.1241985 1856.8917188 C1867.12670737 1858.12135431 1867.12921625 1859.35098981 1867.13180115 1860.617887 C1867.12944826 1861.72031781 1867.12709536 1862.82274862 1867.12467116 1863.95858642 C1867.12476717 1865.39403 1867.12476717 1865.39403 1867.12486512 1866.85847244 C1867 1869 1867 1869 1866 1870 C1864.32449918 1870.09784059 1862.64483354 1870.1247836 1860.96647846 1870.12467116 C1859.31546887 1870.12820051 1859.31546887 1870.12820051 1857.63110555 1870.13180115 C1856.40345583 1870.12929228 1855.17580612 1870.1267834 1853.91095489 1870.1241985 C1852.61394768 1870.12547659 1851.31694046 1870.12675468 1849.98062999 1870.1280715 C1846.34132801 1870.13151222 1842.70205301 1870.12864069 1839.06275236 1870.12483748 C1835.1021515 1870.12179252 1831.14155411 1870.1245268 1827.18095318 1870.12654402 C1820.20076831 1870.12928905 1813.22059158 1870.12827571 1806.24040711 1870.12488258 C1795.81110241 1870.11983208 1785.38180361 1870.12050664 1774.95249814 1870.12235395 C1757.17179025 1870.12533435 1739.39108563 1870.12353674 1721.61037815 1870.11921513 C1703.38383729 1870.11480545 1685.1572981 1870.11262712 1666.93075669 1870.11307228 C1665.77266954 1870.11309925 1664.61458239 1870.11312623 1663.4214017 1870.11315403 C1657.51602202 1870.1133016 1651.61064235 1870.11348463 1645.70526268 1870.11368043 C1603.31185436 1870.11501553 1560.91844753 1870.11162791 1518.52503967 1870.10557556 C1461.20325657 1870.09740929 1403.88147668 1870.09547361 1346.55969238 1870.09460449 C1208.68562794 1870.08934691 1070.81156394 1870.07538591 932.9375 1870.0625 C625.068125 1870.041875 317.19875 1870.02125 0 1870 C0 1252.9 0 635.8 0 0 Z " fill="#B9915E" transform="translate(0,8208)"/>
<path d="M0 0 C616.11 0 1232.22 0 1867 0 C1867 616.77 1867 1233.54 1867 1869 C1250.89 1869 634.78 1869 0 1869 C0 1252.23 0 635.46 0 0 Z " fill="#B9915E" transform="translate(0,6156)"/>
<path d="M0 0 C616.11 0 1232.22 0 1867 0 C1867 616.44 1867 1232.88 1867 1868 C1250.89 1868 634.78 1868 0 1868 C0 1251.56 0 635.12 0 0 Z " fill="#B9915E" transform="translate(0,0)"/>
</svg>
